<svg width="144" height="130" viewBox="0 0 144 130" fill="none" xmlns="http://www.w3.org/2000/svg">
<path fill-rule="evenodd" clip-rule="evenodd" d="M66.2911 0.0720733C64.9523 0.134886 61.7041 0.265899 59.0728 0.363065C56.4414 0.46023 53.4198 0.648836 52.358 0.781871C50.2201 1.04996 48.0971 1.21129 45.5594 1.29885C43.8216 1.3588 41.9021 1.55684 39.0125 1.97447C38.0893 2.10801 36.8051 2.25889 36.1588 2.30992C34.8294 2.415 31.1776 2.90301 31.0282 2.99563C30.9744 3.02898 30.2559 3.13978 29.4316 3.24166C28.6076 3.34354 27.129 3.61214 26.146 3.8383C25.1629 4.06462 24.1054 4.28253 23.7958 4.32261C22.492 4.49135 21.4158 5.16965 21.0471 6.05475C20.6783 6.94002 20.7257 8.15502 21.15 8.69608C21.8477 9.5859 22.1999 9.63355 28.0707 9.6317C31.042 9.63086 34.3038 9.5997 35.3194 9.56232C38.705 9.43821 47.6081 9.16928 52.1062 9.05527C56.1425 8.95305 63.4828 8.65415 64.5285 8.5494C66.2392 8.37814 78.9391 8.3187 83.0779 8.46268C89.7312 8.69423 92.7206 8.82844 92.8403 8.90085C93.0328 9.01722 104.099 9.2198 110.189 9.21828C118.642 9.21626 121.104 8.98 122.927 7.99588C124.005 7.41373 124.248 6.96613 124.136 5.76764C124.024 4.57858 123.991 4.44116 123.661 3.81641C123.329 3.18895 121.821 2.45356 120.585 2.31581C120.13 2.26529 118.94 2.10666 117.942 1.96335C116.944 1.82021 115.886 1.70402 115.592 1.70537C115.297 1.70671 114.415 1.63801 113.63 1.5528C112.845 1.46742 111.221 1.36184 110.021 1.31805C108.82 1.2741 106.177 1.12557 104.145 0.987653C98.8615 0.628965 94.3329 0.401797 89.7087 0.263206C81.5449 0.0188598 69.519 -0.0793166 66.2911 0.0720733ZM5.30667 9.31966C4.2204 9.57613 3.18549 10.1332 2.47961 10.8413C2.10677 11.2153 1.83902 11.5585 1.88435 11.6041C1.92984 11.6496 1.90046 11.9194 1.81922 12.2035C1.40005 13.6697 1.04165 31.3428 0.918436 56.6239C0.902489 59.9043 1.03997 60.9879 1.6307 62.2351C2.55465 64.186 3.4472 64.696 6.21534 64.8552C8.62425 64.9938 10.4374 64.7637 16.9379 63.4947C17.9073 63.3056 18.8894 63.1281 19.1202 63.1005C19.351 63.073 19.5399 63.0366 19.5399 63.02C19.5399 63.0033 19.7287 62.9716 19.9595 62.9498C20.5214 62.8962 22.0438 62.5379 23.0063 62.2325C23.9576 61.9308 24.3416 61.5886 24.8035 60.6313C25.285 59.6337 25.4225 58.3875 25.4131 55.1083C25.4052 52.3567 25.4001 52.319 24.8818 51.2107C24.3991 50.1791 23.6535 49.3706 23.106 49.2856C22.9912 49.2677 22.7461 49.2309 22.5615 49.2034C21.9817 49.1175 20.1113 49.3937 18.2894 49.8342C15.3017 50.5567 13.0523 50.6085 12.4145 49.9696C11.9012 49.4552 11.968 42.3656 12.5789 32.5429C12.6741 31.0147 12.8295 28.4761 12.9245 26.9016C13.0195 25.3271 13.2112 22.9779 13.3506 21.6813C13.4899 20.3846 13.6311 18.8311 13.6641 18.2291C13.6974 17.6271 13.807 16.1356 13.9077 14.9149C14.069 12.9569 14.0576 12.6095 13.8105 11.9679C13.0471 9.98635 11.177 9.11994 7.73354 9.15244C6.74849 9.16187 5.65634 9.23697 5.30667 9.31966ZM136.173 12.1668C135.328 12.4032 134.403 13.1206 134.114 13.763C133.813 14.4327 132.998 18.8407 132.861 20.5395C132.754 21.8773 131.959 25.0373 131.303 26.7332C129.402 31.6531 125.746 34.6031 123.592 32.9553C123.283 32.7191 123.03 32.4111 123.03 32.2706C123.03 32.1304 122.941 31.8501 122.833 31.6477C122.724 31.4455 122.621 31.1284 122.604 30.9432C122.587 30.7579 122.487 30.0759 122.38 29.4276C122.274 28.7792 122.171 27.6804 122.151 26.9858C122.099 25.1794 122.332 18.4963 122.458 18.1668C122.613 17.761 122.396 16.807 122.062 16.4266C121.75 16.0714 120.814 15.7942 119.337 15.6198C118.568 15.5288 117.04 15.6575 115.392 15.9519C115.208 15.9849 115.003 16.0182 114.937 16.0259C114.594 16.066 113.629 17.1443 113.382 17.7638C113.012 18.6917 112.78 22.5285 112.744 28.333C112.721 31.9997 112.767 33.0209 113.001 34.0585C113.158 34.7532 113.332 35.6117 113.387 35.9663C113.738 38.2277 116.246 42.1127 117.64 42.5567C117.835 42.6187 117.994 42.728 117.994 42.7996C117.994 42.9759 118.804 43.3391 119.421 43.44C119.698 43.4851 120.064 43.5968 120.234 43.688C120.404 43.7793 121.098 43.896 121.775 43.9474C123.509 44.0789 125.783 43.5331 127.647 42.5387C129.047 41.7917 129.444 41.4771 131.276 39.6616C132.189 38.7573 132.598 38.6294 132.6 39.2467C132.602 39.8105 131.895 42.934 131.393 44.5834C130.909 46.1706 129.847 48.9286 129.577 49.2986C129.51 49.3912 129.261 49.8204 129.024 50.2525C128.387 51.414 127.217 52.733 125.994 53.6687C125.333 54.1739 123.427 54.7715 122.475 54.7715C121.65 54.7715 120.217 54.1542 120.087 53.7428C120.032 53.5676 119.925 53.4243 119.849 53.4243C119.651 53.4243 119.513 52.847 119.351 51.3434C119.146 49.443 118.545 48.9757 116.033 48.7639C115.012 48.6778 114.606 48.7316 113.375 49.1167C111.69 49.6438 110.796 50.3505 110.01 51.776C109.576 52.564 109.517 52.8412 109.501 54.1821C109.483 55.676 109.574 56.1933 110.037 57.2387C110.167 57.5305 110.272 57.8451 110.272 57.9377C110.272 58.3237 111.908 60.2458 112.939 61.0719C114.245 62.1189 115.319 62.6995 116.819 63.1714C118.979 63.8505 119.849 63.9622 122.782 63.9366C125.345 63.9142 125.802 63.8645 127.23 63.4534C131.427 62.2453 134.338 59.6682 136.907 54.8885C137.307 54.1437 137.635 53.474 137.635 53.4001C137.635 53.3263 137.821 52.8578 138.049 52.3589C138.276 51.8601 138.538 51.1189 138.631 50.7121C138.724 50.3051 138.958 49.5554 139.152 49.046C139.345 48.5366 139.568 47.7409 139.646 47.2778C139.725 46.8147 139.944 45.8636 140.134 45.1644C140.324 44.465 140.514 43.5557 140.556 43.1436C140.599 42.7314 140.827 41.4091 141.065 40.2051C141.302 39.001 141.532 37.5631 141.577 37.0097C141.621 36.4563 141.853 34.5619 142.091 32.7997C142.329 31.0376 142.524 29.2929 142.525 28.9224C142.526 28.5519 142.706 27.0742 142.924 25.6386C143.414 22.4183 143.589 21.0535 143.535 20.8556C143.512 20.7719 143.619 19.8811 143.774 18.8761C144.163 16.3427 144.065 15.2838 143.364 14.4083C142.398 13.2016 139.778 12.203 137.348 12.1144C136.867 12.0969 136.339 12.1205 136.173 12.1668ZM68.6404 14.7438C68.5939 14.7938 68.1784 14.8832 67.7171 14.9426C67.256 15.0019 66.7275 15.0721 66.5429 15.0984C65.9117 15.1885 63.8578 16.3451 63.3084 16.9198C62.7244 17.5308 61.9064 19.129 61.2592 20.9235C61.0422 21.5255 60.7921 22.1129 60.7036 22.2286C60.615 22.3444 60.5854 22.4391 60.638 22.4391C60.6903 22.4391 60.5905 22.8558 60.4157 23.3652C60.241 23.8746 60.1411 24.2914 60.1935 24.2914C60.246 24.2914 60.2139 24.3862 60.1221 24.5019C60.0305 24.6178 59.8602 25.1292 59.7441 25.6386C59.6279 26.148 59.3548 27.1332 59.1372 27.8278C58.9197 28.5224 58.7083 29.356 58.6674 29.6802C58.6264 30.0043 58.404 30.8758 58.173 31.6168C57.9422 32.3577 57.7083 33.2671 57.6536 33.6375C57.5989 34.008 57.3744 34.9931 57.1549 35.8267C56.5781 38.0164 55.8445 41.1383 55.777 41.6913C55.7451 41.953 55.5321 42.8624 55.3035 43.7121C55.075 44.5619 54.8433 45.5222 54.7886 45.8464C54.6416 46.7206 54.0347 49.4181 53.9568 49.5446C53.9197 49.6047 53.8532 49.953 53.8093 50.3182C53.7651 50.6836 53.5382 51.7403 53.3048 52.6665C53.0715 53.5927 52.8383 54.7294 52.7864 55.1925C52.7346 55.6556 52.648 56.2462 52.5941 56.505C52.4275 57.3035 52.8499 58.6559 53.4165 59.1391C54.3048 59.8967 54.9415 60.0366 57.562 60.051C59.9467 60.0639 60.0142 60.0542 60.8914 59.5725C61.9381 58.9978 62.3506 58.3262 62.4983 56.956C62.553 56.4491 62.7912 54.8717 63.0277 53.4508C63.2643 52.0296 63.4833 50.6277 63.5145 50.3354C63.6121 49.4207 63.7618 49.2507 64.6589 49.0347C65.9575 48.7223 71.3224 48.9247 71.9739 49.3107C72.8821 49.8489 73.2415 50.9495 73.423 53.7466C73.5994 56.4706 74.3471 59.1499 74.9307 59.1499C75.0496 59.1499 75.2364 59.258 75.3457 59.3902C75.7268 59.8506 77.5275 59.8938 79.4153 59.4878C80.368 59.2829 81.2914 59.0872 81.4675 59.0529C82.018 58.9458 83.1063 58.0893 83.5535 57.4113C83.9364 56.831 83.9798 56.6055 83.96 55.3035C83.9459 54.3812 83.7755 53.1646 83.4962 51.9929C83.2533 50.9741 83.0208 49.8753 82.9795 49.5512C82.9384 49.227 82.7123 48.0977 82.4771 47.0415C82.2417 45.9853 82.0297 44.8486 82.0055 44.5155C81.9648 43.9516 81.7057 42.6012 80.6134 37.2581C80.3767 36.1004 80.1546 34.8689 80.12 34.5216C80.0853 34.1742 79.8676 33.0865 79.6364 32.1048C79.4051 31.1228 79.1855 30.081 79.1483 29.7893C79.0699 29.1736 79.0173 28.9278 78.5406 26.94C78.3457 26.1276 78.1491 25.2562 78.104 25.0034C78.0588 24.7508 77.8332 23.8847 77.6025 23.0788C77.3719 22.273 77.1516 21.4394 77.1129 21.2264C77.0128 20.6749 76.0815 18.1532 75.7065 17.4178C75.2504 16.5236 74.2356 15.5401 73.3751 15.1582C72.8302 14.9164 72.105 14.804 70.6775 14.7402C69.6038 14.6922 68.6871 14.6939 68.6404 14.7438ZM38.8447 16.1437C35.6906 16.4559 34.7161 16.5803 33.5912 16.8146C32.8798 16.9626 32.1624 17.1103 31.9967 17.1429C31.4791 17.2448 30.3818 18.2286 29.9378 18.9886C29.7041 19.3887 29.4787 20.0446 29.437 20.4461C29.3954 20.8475 29.3229 21.4792 29.2757 21.8497C28.9764 24.199 28.4797 31.078 28.3514 34.6479C28.2683 36.9634 28.1167 40.5629 28.0147 42.6468C27.9126 44.7308 27.8191 48.2166 27.8069 50.3931C27.7862 54.0561 27.8121 54.4339 28.1547 55.4717C28.8826 57.6769 30.1113 58.9101 32.2975 59.6301C33.3169 59.9657 33.7586 60.0063 36.1469 59.9836C38.7577 59.9587 42.5708 59.6552 44.4683 59.3215C44.9761 59.232 45.7902 59.1216 46.2775 59.0759C48.0076 58.9141 49.583 57.8677 49.8427 56.7081C50.0131 55.9476 50.0873 52.8002 49.9441 52.4139C49.8926 52.275 49.814 51.8353 49.7695 51.4369C49.6782 50.6186 49.2656 49.8669 48.509 49.1409C47.8019 48.4623 46.6635 48.4081 44.1325 48.9325C42.9741 49.1726 41.5119 49.3459 40.4767 49.3659C38.7839 49.3986 38.7421 49.39 38.2727 48.9192C37.68 48.3245 37.5618 47.5499 37.6241 44.6676C37.6694 42.5712 37.6822 42.5162 38.3617 41.4945C38.3829 41.4628 39.2178 41.4072 40.2172 41.3712C43.7637 41.2431 44.6108 41.1383 45.5372 40.7131C46.0281 40.488 46.5094 40.2057 46.6069 40.086C47.2382 39.3105 47.524 36.2671 47.1442 34.3615C46.9017 33.1448 46.7029 32.7927 46.0642 32.4476C45.5763 32.1841 45.1646 32.1632 42.2331 32.2535C37.8741 32.3875 38.0909 32.5379 38.1005 29.389C38.1042 28.1289 38.1767 26.9683 38.2613 26.8097C38.3459 26.6509 38.7346 26.3929 39.1248 26.2363C39.7387 25.9899 40.4124 25.9579 44.1238 25.9993C47.9559 26.0419 48.4887 26.0147 49.1216 25.7423C49.9228 25.3978 50.8461 24.1793 50.8491 23.4627C50.8501 23.2238 50.9634 22.6565 51.1009 22.2018C51.4608 21.0114 51.4198 19.1558 51.0138 18.2579C50.606 17.3568 50.1842 16.9932 49.0007 16.5227C48.1484 16.1839 47.7481 16.1526 43.7968 16.1164C41.4424 16.0948 39.214 16.1071 38.8447 16.1437ZM96.0719 16.3941C94.8629 16.4581 93.4276 16.6034 92.8824 16.7171C92.3372 16.8307 91.7973 16.9375 91.6826 16.9545C91.0739 17.0448 89.9145 18.1942 89.4664 19.1519C89.0026 20.1433 88.9878 20.2664 88.7992 24.7124C88.5918 29.6017 88.5378 30.6665 88.2862 34.8163C88.1964 36.2982 88.0827 39.1399 88.0337 41.1312C87.9847 43.1226 87.9081 45.2444 87.8638 45.8464C87.8193 46.4484 87.7441 48.1913 87.6964 49.7196C87.6488 51.2478 87.5657 53.5211 87.5116 54.7715C87.4042 57.2534 87.6078 58.3215 88.3407 59.1238C89.0896 59.9433 89.549 60.06 92.0588 60.0683C94.6042 60.0767 95.2154 59.9388 96.0606 59.1652C97.1118 58.2031 97.1497 57.9498 97.5194 49.467C97.6948 45.4409 97.7376 45.0588 98.0526 44.719C98.3807 44.3648 98.541 44.3471 101.888 44.298C105.133 44.2503 105.414 44.2215 105.854 43.8921C106.854 43.1438 106.994 42.6536 107.051 39.6999C107.101 37.1597 107.082 36.962 106.716 36.2477C106.133 35.1092 105.82 35.0187 102.095 34.9103C99.3398 34.83 98.8266 34.7737 98.5785 34.5247C98.3352 34.2805 98.2899 33.9191 98.2998 32.3072C98.323 28.5694 98.5926 27.1335 99.3263 26.8373C99.6188 26.7192 101.316 26.6623 104.085 26.6776C108.049 26.6995 108.434 26.6758 108.953 26.3777C109.562 26.028 110.236 24.8724 110.348 23.9865C110.385 23.6955 110.509 23.0199 110.623 22.4852C110.738 21.9504 110.838 20.7551 110.846 19.8289C110.863 17.7386 110.673 17.2916 109.518 16.7179C108.682 16.3026 108.663 16.3013 103.475 16.2897C100.612 16.2831 97.2809 16.3302 96.0719 16.3941ZM70.0468 29.7437C70.5193 31.8801 71.2877 36.6647 71.408 38.219C71.5229 39.7037 71.3756 39.7841 68.5405 39.7841C65.8237 39.7841 65.8051 39.7714 66.1113 38.1338C66.2273 37.5132 66.3576 36.7024 66.4007 36.3319C66.4438 35.9614 66.6727 34.9005 66.9092 33.9743C67.1457 33.0481 67.3648 32.0943 67.3962 31.8549C67.4276 31.6154 67.6762 30.8386 67.9486 30.1288C68.2211 29.419 68.4109 28.8382 68.3705 28.8382C68.2791 28.8382 68.7861 27.8251 69.031 27.5179C69.3352 27.1367 69.5976 27.7118 70.0468 29.7437ZM38.425 65.6237C37.3632 65.7452 35.9181 65.8873 35.2137 65.9395C34.5091 65.9917 33.213 66.2266 32.3334 66.4614C31.4538 66.6963 30.4258 66.9272 30.0491 66.9746C29.6724 67.0221 28.8156 67.2533 28.1451 67.4886C27.4746 67.7237 26.7095 67.9544 26.4448 68.0014C25.1592 68.2292 23.9464 69.1833 23.2865 70.4856C22.5506 71.9378 22.5111 73.1365 23.0355 78.0946C23.2707 80.3175 23.5428 83.1971 23.6405 84.4938C23.7382 85.7904 23.9689 88.5943 24.1532 90.7245C24.3374 92.8547 24.4928 95.2418 24.4985 96.029C24.5042 96.8163 24.6216 99.4686 24.7595 101.923C24.9241 104.852 25.014 109.736 25.0216 116.14C25.0342 126.892 25.0652 127.256 26.0837 128.595C26.9712 129.763 28.637 130.23 30.7076 129.893C31.3976 129.781 32.1671 129.657 32.4175 129.619C33.3274 129.478 35.6176 128.633 36.2407 128.208C37.3554 127.447 38.0513 126.452 38.1777 125.437C38.2585 124.788 38.1808 120.194 38.0889 120.194C38.0594 120.194 37.9219 117.471 37.7394 113.273C37.5419 108.732 37.5466 108.515 37.8534 107.885L38.1732 107.228L40.4394 106.689C41.6858 106.393 43.461 105.902 44.3843 105.598C45.3076 105.294 46.063 105.069 46.063 105.097C46.063 105.277 50.901 102.799 52.1257 101.992C53.5744 101.037 56.4245 98.3614 57.7864 96.6776C59.2166 94.9094 61.277 90.2665 61.5121 88.2827C61.5614 87.866 61.6781 87.2597 61.7714 86.9355C61.8647 86.6114 61.9836 85.361 62.0356 84.157C62.1641 81.1871 61.6336 77.4376 60.8951 76.0937C60.7993 75.9194 60.6175 75.4828 60.4912 75.1236C60.2583 74.4613 59.2892 72.9209 59.0405 72.8182C58.966 72.7872 58.9044 72.6736 58.9037 72.5656C58.9022 72.345 56.9412 70.4064 56.0644 69.7589C55.7508 69.5274 55.409 69.2622 55.3046 69.1695C54.9474 68.8524 51.6676 67.0679 51.2976 66.9893C51.1883 66.9661 50.9857 66.9061 50.8472 66.8559C49.3581 66.3174 48.674 66.1311 47.5567 65.96C47.1968 65.905 46.6002 65.7905 46.2309 65.7054C45.0618 65.4365 40.4816 65.3885 38.425 65.6237ZM78.8812 66.3991C76.3439 66.9416 75.6867 67.1511 74.6922 67.7346C74.0879 68.0893 73.412 68.6263 73.1906 68.9279C72.6875 69.6131 71.3271 72.3779 71.3271 72.715C71.3271 72.8526 71.1361 73.4368 70.9028 74.013C70.6693 74.5894 70.4445 75.2529 70.4034 75.4877C70.3621 75.7224 70.104 76.5376 69.8299 77.2993C69.5556 78.0608 69.3636 78.684 69.4029 78.684C69.4421 78.684 69.2603 79.3091 68.9988 80.0733C68.7373 80.8375 68.2756 82.2583 67.973 83.2308C67.6703 84.2033 67.2286 85.5673 66.9914 86.262C66.7542 86.9566 66.5506 87.6386 66.5389 87.7775C66.5273 87.9165 66.3173 88.6364 66.0722 89.3773C64.837 93.1127 64.5703 93.9579 64.504 94.3451C64.4642 94.5766 64.2409 95.2733 64.0074 95.8932C63.7741 96.513 63.5543 97.2329 63.5193 97.4929C63.484 97.7529 63.268 98.4393 63.039 99.0181C62.8102 99.5971 62.6504 100.071 62.6838 100.071C62.7172 100.071 62.5189 100.734 62.243 101.544C61.9671 102.355 61.713 103.207 61.6784 103.439C61.6438 103.67 61.4142 104.466 61.1679 105.207C60.9218 105.948 60.6851 106.743 60.6418 106.975C60.5987 107.206 60.3897 107.926 60.1775 108.575C59.9653 109.223 59.5984 110.398 59.362 111.185C59.1256 111.972 58.6543 113.521 58.3143 114.627C57.9742 115.732 57.6674 116.796 57.6321 116.991C57.597 117.185 57.4095 117.796 57.2156 118.348C57.0218 118.901 56.828 119.58 56.7851 119.857C56.7421 120.135 56.6377 120.574 56.5532 120.832C56.4688 121.091 56.3567 121.849 56.3041 122.516C56.2177 123.615 56.2531 123.818 56.6754 124.651C57.218 125.72 57.7476 126.069 59.2378 126.34C61.3939 126.732 65.5318 126.406 66.8095 125.744C67.4621 125.405 68.1598 124.681 68.513 123.976C68.8489 123.305 69.2612 121.586 69.3792 120.363C69.4238 119.899 69.6154 118.824 69.8046 117.972C69.9939 117.12 70.1912 116.059 70.2429 115.614C70.2946 115.17 70.5281 114.02 70.7616 113.059C70.9951 112.099 71.2155 111.161 71.2511 110.975C71.431 110.038 72.3045 109.439 73.8796 109.174C75.4001 108.918 80.8352 108.612 81.6596 108.736C82.2332 108.822 82.5966 109.007 83.0126 109.424C83.3255 109.738 83.5815 110.022 83.5815 110.055C83.5815 110.088 83.6929 110.867 83.8291 111.787C83.9654 112.706 84.0822 113.913 84.089 114.469C84.1086 116.1 84.4287 119.586 84.6859 120.968C84.9944 122.625 85.3092 123.23 86.1343 123.752C86.7184 124.122 86.9995 124.179 88.2581 124.183C89.0558 124.186 90.0108 124.11 90.3801 124.015C90.7495 123.92 91.4626 123.796 91.9647 123.74C93.6163 123.553 95.7235 122.433 96.3426 121.411C96.7783 120.693 96.6955 118.55 96.1365 116.068C95.5648 113.531 94.8432 109.78 94.7456 108.837C94.7029 108.425 94.4691 107.099 94.2258 105.89C93.9826 104.681 93.7684 103.464 93.7498 103.186C93.7313 102.908 93.5179 101.62 93.2759 100.323C93.0338 99.0265 92.6 96.5258 92.3118 94.7661C92.0237 93.0063 91.5608 90.354 91.2831 88.8721C91.0055 87.3902 90.7531 85.9125 90.7226 85.5884C90.6919 85.2642 90.5017 84.1654 90.3001 83.1466C90.0983 82.1278 89.899 80.9606 89.8572 80.5531C89.8154 80.1454 89.5969 79.0293 89.3716 78.0726C89.1463 77.1161 88.9321 76.0855 88.8955 75.7827C88.7569 74.6309 87.8818 71.4668 87.303 70.0237C86.5193 68.0701 85.7371 67.0774 84.6577 66.6666C83.6951 66.3005 80.1174 66.1347 78.8812 66.3991ZM106.328 67.3475C104.951 67.6567 103.898 68.1405 103.327 68.7267C102.323 69.7579 102.292 69.9593 101.88 78.0946C101.79 79.8544 101.714 82.0141 101.711 82.894C101.703 84.6858 101.513 89.1443 101.036 98.7234C100.717 105.134 100.455 112.62 100.453 115.395C100.452 117.519 100.655 118.845 101.124 119.773C102.151 121.806 103.391 122.541 106.194 122.777C107.191 122.861 108.082 122.907 108.174 122.879C108.266 122.851 109.252 122.786 110.364 122.735C112.189 122.651 115.008 122.259 116.983 121.814C117.391 121.722 117.772 121.676 117.83 121.712C117.94 121.78 119.883 121.466 122.023 121.033C122.716 120.893 123.584 120.741 123.954 120.695C127.402 120.266 128.422 119.537 129.035 117.061C129.566 114.916 129.793 113.015 129.715 111.367C129.654 110.086 129.563 109.716 129.065 108.721C127.892 106.376 126.289 106.183 120.093 107.642C118.985 107.903 117.965 108.12 117.827 108.123C117.688 108.127 116.723 108.175 115.682 108.228C113.453 108.343 112.92 108.167 112.504 107.174C112.282 106.644 112.26 105.953 112.357 102.428C112.419 100.159 112.539 97.5067 112.624 96.5342C112.975 92.539 113.296 88.1364 113.307 87.1881C113.314 86.6324 113.508 84.3212 113.739 82.052C113.97 79.7828 114.193 77.2821 114.234 76.4949C114.275 75.7076 114.424 74.2011 114.566 73.1473C114.803 71.375 114.801 71.1624 114.536 70.3178C114.339 69.6897 114.022 69.1788 113.519 68.6819C112.882 68.0512 112.6 67.913 111.312 67.596C109.923 67.2542 107.321 67.1245 106.328 67.3475ZM44.088 77.3475C44.5713 77.4468 45.0041 77.5261 45.0497 77.5236C45.0956 77.5211 45.5846 77.7439 46.1367 78.0185C47.9139 78.9031 48.8186 80.1833 49.4073 82.6466C49.6394 83.6176 49.6586 84.0305 49.5137 84.9402C48.8661 89.0067 46.3323 91.7314 41.2788 93.7951C40.1512 94.2556 39.5618 94.3914 38.4687 94.4422C37.1383 94.504 37.0745 94.4901 36.8044 94.0766C36.6187 93.7924 36.4796 93.0656 36.3936 91.9329C36.1873 89.2143 36.0661 79.5712 36.2327 79.1318C36.4725 78.499 37.2781 77.7632 38.0033 77.5152C38.3716 77.3891 39.3159 77.1991 40.1017 77.0928C41.4963 76.9042 42.1309 76.9448 44.088 77.3475ZM79.7746 83.1538C80.6787 87.6666 81.18 90.4813 81.1978 91.1455C81.2041 91.3771 81.3775 92.6299 81.5834 93.9296C81.9745 96.401 81.9411 97.0854 81.415 97.3678C80.3722 97.9276 75.2195 98.2719 74.6071 97.8228C74.2514 97.562 74.2957 97.0492 74.8712 94.7661C75.0578 94.0251 75.2374 93.2941 75.2703 93.1415C75.414 92.474 76.252 89.5863 76.7065 88.1935C76.9792 87.357 77.2025 86.541 77.2025 86.3798C77.2025 86.2187 77.3969 85.6148 77.6346 85.0377C77.8723 84.4608 78.0987 83.8268 78.138 83.6291C78.2257 83.1872 79.2342 81.0029 79.3138 81.0827C79.3453 81.1144 79.5528 82.0464 79.7746 83.1538ZM5.39799 84.5884C4.70554 84.7346 4.40505 84.9867 3.8155 85.9161C3.24173 86.8204 3.20732 87.5761 3.68188 88.8485C4.13949 90.0755 5.09566 91.1224 6.75168 92.2099C8.19266 93.1563 12.7412 95.6138 12.7412 95.4461C12.7412 95.3925 13.0246 95.4925 13.3707 95.6683C14.67 96.3281 16.4701 96.4984 16.9592 96.0077C17.6503 95.3144 17.2003 94.0172 15.4182 91.5665C14.8119 90.7329 14.1874 89.8615 14.0304 89.6299C13.4911 88.8349 11.3137 86.7311 10.3365 86.0609C8.50036 84.8016 6.79549 84.2934 5.39799 84.5884ZM10.5589 103.99C10.5128 104.037 9.55021 104.119 8.41978 104.173C5.95129 104.29 4.71561 104.583 2.88535 105.484C0.725221 106.547 -0.089778 107.713 0.00775332 109.603C0.0498882 110.418 0.473083 111.044 1.35926 111.601C2.12893 112.085 4.7648 111.993 6.53009 111.42C7.31488 111.165 8.03788 110.941 8.13676 110.922C8.51748 110.848 10.8789 109.752 12.404 108.942C15.4541 107.322 17.044 105.775 16.4261 105.028C16.1175 104.655 15.2354 104.28 14.4922 104.204C12.7608 104.029 10.6343 103.913 10.5589 103.99ZM14.0002 116.634C11.8105 117.662 7.41123 122.006 6.26772 124.27C5.842 125.113 5.77469 125.434 5.77469 126.621C5.77469 127.883 5.80927 128.025 6.19436 128.344C6.42518 128.535 6.7035 128.768 6.81278 128.86C6.92207 128.952 7.31454 129.076 7.68503 129.136C8.61418 129.285 10.2727 128.496 11.3917 127.374C13.0827 125.677 14.8602 122.326 15.9142 118.847C16.3554 117.391 16.3583 117.003 15.9307 116.574C15.4946 116.136 15.0303 116.151 14.0002 116.634Z" fill="#103717"/>
</svg>
